<svg xmlns="http://www.w3.org/2000/svg" viewBox="0 0 24 24" fill="currentColor">
  <path d="M15.999.5a1 1 0 1 1 0 2c-.96 0-1.68.374-2.174.958-.432.51-.726 1.225-.805 2.075.15-.064.29-.143.418-.238 1.468-1.083 3.23-1.6 4.975-1.111 1.96.548 3.313 2.194 4.008 4.188.698 2.003.784 4.47.149 6.943s-1.893 4.572-3.467 5.95c-1.571 1.377-3.55 2.1-5.518 1.55a5.063 5.063 0 0 1-1.348-.601.467.467 0 0 0-.476 0 5.062 5.062 0 0 1-1.348.602c-1.968.55-3.947-.174-5.518-1.55-1.574-1.38-2.832-3.478-3.467-5.951-.635-2.474-.549-4.94.15-6.943.694-1.994 2.047-3.64 4.007-4.188 1.745-.488 3.507.027 4.974 1.111.139.102.292.187.454.253.082-1.274.51-2.465 1.285-3.381C13.178 1.127 14.46.5 16 .5zm-7 11.5a1 1 0 0 0-1 1v1a1 1 0 1 0 2 0v-1a1 1 0 0 0-1-1zm7 1a1 1 0 1 0-2 0v1a1 1 0 1 0 2 0v-1z"/>
</svg>
