<svg xmlns="http://www.w3.org/2000/svg" viewBox="7.92 7.92 28.16 28.16"><path fill-rule="evenodd" fill="currentColor" d="M22.833,34.896 L23.521,34.834 L24.099,34.646 L24.938,34.573 L25.521,34.341 L26.146,34.236 L26.604,33.992 L27.104,33.872 L27.396,33.662 L28.437,33.211 L30.354,31.830 L31.864,30.313 L33.188,28.480 L33.662,27.396 L33.872,27.104 L33.992,26.604 L34.225,26.188 L34.342,25.521 L34.563,24.988 L34.661,24.021 L34.842,23.479 L34.929,22.021 L34.845,20.563 L34.646,19.901 L34.565,19.021 L34.330,18.438 L34.225,17.813 L33.992,17.396 L33.872,16.896 L33.662,16.604 L33.188,15.521 L31.830,13.646 L30.771,12.547 L29.910,11.813 L28.480,10.812 L27.396,10.338 L27.104,10.128 L25.063,9.456 L22.813,9.100 L20.521,9.158 L19.979,9.339 L18.979,9.445 L18.438,9.672 L17.813,9.775 L17.396,10.008 L16.896,10.128 L16.656,10.312 L15.563,10.787 L13.675,12.146 L12.547,13.229 L11.812,14.090 L10.789,15.563 L10.318,16.646 L10.126,16.896 L10.010,17.396 L9.762,17.854 L9.672,18.438 L9.444,18.979 L9.341,19.979 L9.158,20.521 L9.071,21.979 L9.154,23.438 L9.348,24.063 L9.435,24.979 L9.672,25.563 L9.775,26.188 L10.008,26.604 L10.128,27.104 L10.312,27.344 L10.786,28.438 L12.146,30.325 L13.675,31.854 L15.520,33.188 L16.604,33.662 L16.896,33.872 L17.396,33.992 L17.771,34.209 L18.479,34.341 L18.979,34.556 L19.938,34.652 L20.521,34.843 L22.813,34.898 Z M22.813,32.063 L20.271,31.988 L19.688,31.779 L18.938,31.667 L18.562,31.457 L18.086,31.354 L17.022,30.729 L16.921,30.438 L16.938,28.500 L17.010,28.313 L17.299,28.021 L17.563,27.931 L26.146,27.925 L26.688,28.010 L26.990,28.313 L27.066,28.521 L27.079,30.438 L26.979,30.728 L25.937,31.344 L25.479,31.441 L25.063,31.667 L24.312,31.779 L23.604,32.015 L22.833,32.063 Z M19.7,26.34 L19.7,22.4 C19.7,19.6 21.1,16.2 22,14.0 C22.9,16.2 24.3,19.6 24.3,22.4 L24.3,26.34 Z"/></svg>
