<svg xmlns="http://www.w3.org/2000/svg" viewBox="0 0 24 24" fill="currentColor">
  <path d="M9.39168 14.3154C9.92773 14.1836 10.4695 14.5109 10.6016 15.0469C10.7337 15.5829 10.4061 16.1245 9.87019 16.2568C6.82709 17.0065 4.38749 19.3292 3.45418 22.2998C3.28854 22.8265 2.72707 23.1196 2.20027 22.9541C1.67343 22.7886 1.38056 22.227 1.54598 21.7002C2.68592 18.0718 5.66138 15.2343 9.39168 14.3154Z" fill="currentColor"/>
  <path d="M1.29305 1.29297C1.68357 0.902482 2.3166 0.902457 2.70711 1.29297L22.7071 21.293C23.0976 21.6835 23.0976 22.3165 22.7071 22.707C22.3166 23.0975 21.6836 23.0975 21.293 22.707L1.29305 2.70703C0.902521 2.31651 0.902521 1.68349 1.29305 1.29297Z" fill="currentColor"/>
  <path d="M12.0001 1C15.0375 1.00016 17.5001 3.46254 17.5001 6.5C17.5001 7.96958 16.9221 9.3062 15.9835 10.292C15.6028 10.6918 14.9704 10.7075 14.5704 10.3271C14.1705 9.94631 14.1544 9.31304 14.5352 8.91309C15.134 8.28428 15.5001 7.4359 15.5001 6.5C15.5001 4.5671 13.933 3.00016 12.0001 3C11.0642 3.00005 10.2158 3.36617 9.58699 3.96484C9.18708 4.34559 8.55378 4.33045 8.17293 3.93066C7.79209 3.53071 7.80814 2.89746 8.20809 2.5166C9.19383 1.578 10.5306 1.00006 12.0001 1Z" fill="currentColor"/>
</svg>
