<svg xmlns="http://www.w3.org/2000/svg" viewBox="0 0 16 16" fill="currentColor">
  <path d="M5.36816 10.3711C6.53332 10.3711 7.29684 11.9982 7.29688 13.2236C7.29671 14.2681 6.75417 15.4131 5.79004 15.4131C4.66511 15.413 3.8623 13.8458 3.8623 12.54C3.86235 11.4754 4.40401 10.3712 5.36816 10.3711ZM9.52734 11.0137C10.9737 11.014 12.6807 12.2799 12.6807 13.5654C12.6803 14.4086 11.9376 14.8709 11.0742 14.8711C9.64813 14.8711 7.96055 13.6254 7.95996 12.2998C7.95996 11.436 8.68359 11.0137 9.52734 11.0137ZM3.48047 6.97559C4.30374 6.97583 4.78608 7.51798 4.78613 8.32129C4.78613 9.76755 3.25908 11.3551 1.87305 11.3555C1.06975 11.3554 0.547081 10.8126 0.546875 9.98926C0.546929 8.58303 2.07424 6.97559 3.48047 6.97559ZM14.0273 7.41797C15.0516 7.41816 15.7344 7.96067 15.7344 8.78418C15.7337 10.1096 13.9263 11.114 12.5605 11.1143C11.516 11.1142 10.8525 10.511 10.8525 9.72754C10.8527 8.44189 12.6211 7.41797 14.0273 7.41797ZM12.6611 2.1543C13.5849 2.15464 14.0674 3.11892 14.0674 4.08301C14.0672 5.36868 13.203 7.11621 11.9375 7.11621C11.0136 7.11621 10.5119 6.1922 10.5117 5.20801C10.5118 3.88215 11.4157 2.15437 12.6611 2.1543ZM3.62109 2.87793C4.94675 2.87813 6.31238 3.60053 6.3125 4.66504C6.3125 5.6695 5.10714 6.25293 3.92188 6.25293C2.59598 6.25293 1.23047 5.52902 1.23047 4.48438C1.23047 3.52009 2.37556 2.87793 3.62109 2.87793ZM7.33691 0.265625C8.72301 0.265625 10.0497 1.99362 10.0498 3.41992C10.0496 4.2431 9.60723 4.84634 8.78418 4.84668C7.39802 4.84668 6.05176 3.11816 6.05176 1.71191C6.05181 0.908453 6.49331 0.265698 7.33691 0.265625Z"/>
</svg>
