<svg xmlns="http://www.w3.org/2000/svg" viewBox="0 0 24 24" fill="currentColor">
  <path d="M735.693,97.331c-33.518,0-65.395,18.517-80.982,56.839l20.157-113.679h-56.488l-52.034,294.627h56.605l22.619-128.328c7.969-46.292,33.869-61.058,57.425-61.058,24.142,0,38.088,14.884,38.088,37.034,0,4.219-.703,9.024-1.641,14.063l-24.259,138.29h56.488l28.01-159.385c1.055-5.86,2.109-12.305,2.109-19.337,0-40.198-30.939-59.066-66.098-59.066Z"/>
  <polygon points="582.637 101.55 517.242 101.55 525.563 53.148 468.958 53.148 460.637 101.55 407.9 101.55 400.282 143.623 453.137 143.623 419.619 335.119 476.224 335.119 509.625 143.623 575.137 143.623 582.637 101.55"/>
  <path d="M964.106,97.331c-35.158,0-58.246,28.713-69.965,56.839l9.141-52.62h-56.488l-41.135,233.569h56.605l23.087-131.258c6.797-38.323,26.837-56.839,50.276-56.839,10.899,0,20.509,2.813,29.299,9.024l33.049-48.167c-8.321-6.329-19.923-10.548-33.869-10.548Z"/>
  <path d="M1105.325,96.628c-71.958,0-124.461,61.058-124.461,134.657,0,67.152,46.175,107.35,110.983,107.35,31.408,0,63.754-8.438,86.724-31.643l-26.838-38.557c-14.649,14.649-32.111,26.017-55.667,26.017-36.448,0-59.066-24.611-58.714-63.168h155.048c2.93-14.298,4.688-27.775,4.688-40.432,0-56.019-35.393-94.224-91.763-94.224ZM1142.945,193.43h-101.022c8.79-32.463,28.947-54.73,60.707-54.73,26.252,0,41.37,17.11,41.37,42.542,0,3.867-.352,7.969-1.055,12.188Z"/>
  <path d="M1874.942,205.853l-37.737-23.204c-11.251-6.68-16.759-12.657-16.759-21.095,0-12.188,10.43-20.978,29.299-20.978,16.759,0,31.994,9.493,44.417,21.329l26.838-38.205c-12.54-14.767-37.854-27.306-71.254-27.306-48.167,0-85.904,25.666-85.904,71.489,0,31.525,16.759,49.222,39.026,62.348l40.549,23.908c8.907,5.625,12.657,10.665,12.657,18.985,0,12.657-12.657,21.095-31.525,21.095-16.29,0-38.791-10.782-52.738-25.431l-26.838,38.088c14.649,18.985,44.065,31.525,79.692,31.525,54.495,0,87.896-27.424,87.896-69.496,0-27.306-11.72-47.112-37.62-63.051Z"/>
  <path d="M1414.368,149.717c-5.508-27.892-29.416-53.675-74.184-53.675-69.379,0-119.89,60.941-119.89,137,0,63.402,37.854,105.71,91.295,105.71,28.127,0,43.948-12.774,54.964-25.197l23.673-26.838-8.438,48.401h56.839l41.018-233.569h-56.722l-8.555,48.167ZM1334.675,292.225c-30.236,0-55.55-18.986-55.55-63.402,0-50.752,19.923-88.833,68.676-88.833,31.174,0,55.55,19.103,55.55,63.402s-23.556,88.833-68.676,88.833Z"/>
  <path d="M1700.557,40.491l-19.22,109.225c-5.508-27.892-29.416-53.675-74.184-53.675-69.379,0-119.89,60.941-119.89,137,0,63.402,37.854,105.71,91.295,105.71,28.127,0,43.948-12.774,54.964-25.197l23.673-26.838-8.438,48.401h56.839l51.683-294.627h-56.722ZM1601.645,292.225c-30.236,0-55.55-18.986-55.55-63.402,0-40.198,19.923-88.833,68.676-88.833,31.174,0,55.55,19.103,55.55,63.402s-23.556,88.833-68.676,88.833Z"/>
</svg>
